<?xml version="1.0" encoding="UTF-8"?>
<svg id="Layer_1" data-name="Layer 1" xmlns="http://www.w3.org/2000/svg" xmlns:xlink="http://www.w3.org/1999/xlink" viewBox="0 0 1571.57 1146.786">
  <defs>
    <style>
      .cls-1 {
        clip-path: url(#clippath);
      }

      .cls-2 {
        stroke-width: 0px;
      }

      .cls-2, .cls-3 {
        fill: none;
      }

      .cls-3 {
        stroke: #f7ca49;
        stroke-width: 60.997px;
      }

      .cls-4 {
        fill: #0052ff;
        stroke: #fff;
        stroke-width: 34.465px;
      }
    </style>
    <clipPath id="clippath">
      <path class="cls-2" d="M573.393,34.465c-72.763,0-143.339,14.247-209.77,42.345-64.173,27.143-121.81,66.004-171.31,115.504-49.5,49.5-88.361,107.137-115.504,171.31-28.098,66.431-42.345,137.007-42.345,209.77s14.247,143.339,42.345,209.77c27.143,64.173,66.004,121.81,115.504,171.31,49.5,49.5,107.137,88.361,171.31,115.504,66.431,28.098,137.007,42.345,209.77,42.345s143.339-14.247,209.77-42.345c64.173-27.143,121.81-66.004,171.31-115.504s88.36-107.137,115.503-171.31c28.098-66.431,42.345-137.007,42.345-209.77s-14.247-143.339-42.345-209.77c-27.143-64.173-66.004-121.81-115.503-171.31s-107.137-88.361-171.31-115.504c-66.431-28.098-137.007-42.345-209.77-42.345Z"/>
    </clipPath>
  </defs>
  <circle id="WHITE_OUTLINE" data-name="WHITE OUTLINE" class="cls-4" cx="573.393" cy="573.393" r="556.16"/>
  <g id="TICKET_CLIPPING_MASK" data-name="TICKET CLIPPING MASK">
    <g class="cls-1">
      <path class="cls-3" d="M73.326,228.041v224.614c39.213,14.719,87.7,63.181,87.7,120.738s-48.486,106.02-87.7,120.738v224.614h1467.745V228.041H73.326Z"/>
    </g>
  </g>
</svg>