<?xml version="1.0" encoding="UTF-8"?>
<svg id="Layer_1" data-name="Layer 1" xmlns="http://www.w3.org/2000/svg" xmlns:xlink="http://www.w3.org/1999/xlink" viewBox="0 0 1146.786 1146.786">
  <defs>
    <style>
      .cls-1 {
        clip-path: url(#clippath);
      }

      .cls-2 {
        fill: none;
      }

      .cls-2, .cls-3 {
        stroke-width: 0px;
      }

      .cls-4 {
        fill: #0052ff;
        stroke: #fff;
        stroke-width: 34.465px;
      }

      .cls-3 {
        fill: #f7ca49;
      }
    </style>
    <clipPath id="clippath">
      <path class="cls-2" d="M573.393,34.465c-72.763,0-143.339,14.247-209.77,42.345-64.173,27.143-121.81,66.004-171.31,115.504-49.5,49.5-88.361,107.137-115.504,171.31-28.098,66.431-42.345,137.007-42.345,209.77s14.247,143.339,42.345,209.77c27.143,64.173,66.004,121.81,115.504,171.31,49.5,49.5,107.137,88.361,171.31,115.504,66.431,28.098,137.007,42.345,209.77,42.345s143.339-14.247,209.77-42.345c64.173-27.143,121.81-66.004,171.31-115.504s88.36-107.137,115.503-171.31c28.098-66.431,42.345-137.007,42.345-209.77s-14.247-143.339-42.345-209.77c-27.143-64.173-66.004-121.81-115.503-171.31s-107.137-88.361-171.31-115.504c-66.431-28.098-137.007-42.345-209.77-42.345Z"/>
    </clipPath>
  </defs>
  <circle id="WHITE_OUTLINE" data-name="WHITE OUTLINE" class="cls-4" cx="573.393" cy="573.393" r="556.16"/>
  <g id="TICKET_CLIPPING_MASK" data-name="TICKET CLIPPING MASK">
    <g class="cls-1">
      <path id="YELLOW_TICKET_OUTLINE" data-name="YELLOW TICKET OUTLINE" class="cls-3" d="M1168.435,274.38c31.098,38.813,55.74,81.762,73.405,127.998,20.89,54.676,31.482,112.533,31.482,171.965,0,59.048-10.462,116.558-31.094,170.932-17.402,45.861-41.67,88.518-72.29,127.13H168.952c-28.875-40.059-45.834-87.921-48.829-138.113,16.33-12.126,31.552-27.204,44.268-44.119,26.672-35.48,40.77-75.862,40.77-116.781s-14.098-81.302-40.77-116.781c-12.669-16.852-27.83-31.884-44.091-43.987,3.496-50.331,20.876-98.196,50.132-138.244h998.004M1196.924,212.835H141.208c-.336.375-.671.751-1.006,1.127-53.27,59.823-82.104,137.495-82.104,217.597v15.78c38.237,15.367,85.517,65.963,85.517,126.054s-47.28,110.687-85.517,126.054v18.75c0,78.917,28.231,155.467,80.443,214.642.327.371.655.741.983,1.112h1059.082c88.089-99.298,136.261-225.74,136.261-359.607,0-134.72-48.78-261.927-137.944-361.509h0Z"/>
    </g>
  </g>
</svg>