<?xml version="1.0" encoding="UTF-8"?>
<svg id="Layer_1" data-name="Layer 1" xmlns="http://www.w3.org/2000/svg" viewBox="0 0 2323.022 1145.407">
  <defs>
    <style>
      .cls-1 {
        fill: #f7c94a;
      }

      .cls-1, .cls-2, .cls-3 {
        stroke-width: 0px;
      }

      .cls-2 {
        fill: #0052ff;
      }

      .cls-3 {
        fill: #fff;
      }
    </style>
  </defs>
  <path id="BLUE_BACKGROUND" data-name="BLUE BACKGROUND" class="cls-2" d="M23.045,23.046v357.494c85.556,23.424,148.356,100.551,148.356,192.16s-62.8,168.736-148.356,192.167v357.494h2276.931V23.046H23.045Z"/>
  <path id="WHITE_TICKET_OUTLINE" data-name="WHITE TICKET OUTLINE" class="cls-3" d="M2323.022,1145.407H0v-398.122l16.958-4.644c77.365-21.188,131.398-91.071,131.398-169.942s-54.031-148.752-131.395-169.932l-16.961-4.644V0h2323.022v1145.407ZM46.091,1099.316h2230.84V46.091H46.091v317.587c88.183,31.753,148.356,115.332,148.356,209.022s-60.173,177.267-148.356,209.028v317.589Z"/>
  <polygon id="YELLOW_INLINE" data-name="YELLOW INLINE" class="cls-1" points="2187.236 1027.761 268.063 1027.761 268.063 117.646 2187.236 117.646 2187.236 133.007 283.424 133.007 283.424 1012.399 2187.236 1012.399 2187.236 1027.761"/>
  <g id="_BLOCK" data-name="$BLOCK">
    <path class="cls-1" d="M659.261,663.56c0,43.53-27.291,65.422-81.865,65.696v39.818h-87.419v-39.818c-50.363-.274-75.545-22.166-75.545-65.696v-46.891l88.431.197v28.908c.337,8.485,6.566,12.731,18.7,12.731h30.314c12.802,0,19.037-4.984,18.7-14.953v-23.248c-.337-8.352-6.489-12.464-18.447-12.331h-55.833c-54.244-.401-81.612-21.083-82.118-62.055v-63.868c0-43.53,27.284-65.422,81.865-65.696h-6.067v-40.022h87.419v40.022h-.253c52.894.274,80.178,20.957,81.865,62.055v46.49l-88.431.204v-25.062c-.337-8.492-6.566-12.738-18.7-12.738h-30.314c-12.809,0-19.037,4.991-18.7,14.96v22.032c.337,8.485,6.566,12.731,18.7,12.731h55.833c52.894.274,80.178,20.957,81.865,62.055v64.48Z"/>
    <path class="cls-1" d="M840.68,633.037c.337-16.703-5.898-25.062-18.693-25.062h-51.545v50.532h51.545c12.795,0,19.03-4.984,18.693-14.96v-10.51ZM840.68,502.263c.337-9.976-5.898-14.96-18.693-14.96h-51.545v48.711h51.545c12.795,0,19.03-7.747,18.693-23.241v-10.51ZM681.758,416.356h165.495c54.575.274,81.865,22.166,81.865,65.696v50.729c0,18.595-6.236,32.008-18.7,40.226,12.464,8.085,18.7,21.357,18.7,39.818v50.736c0,43.53-27.291,65.422-81.865,65.689h-165.495v-312.895Z"/>
    <polygon class="cls-1" points="951.614 729.456 951.614 416.357 1039.033 416.357 1039.033 659.521 1177.743 659.521 1177.996 729.456 951.614 729.456"/>
    <path class="cls-1" d="M1670.377,525.101v-25.47c-.675-8.218-6.911-12.331-18.7-12.331h-30.314c-12.809,0-19.038,4.991-18.7,14.96v141.291c-.337,9.976,5.891,14.96,18.7,14.96h30.314c12.802,0,19.038-4.984,18.7-14.96v-26.679h88.431v46.687c0,43.53-27.284,65.422-81.865,65.696h-81.099c-54.575-.274-81.865-22.166-81.865-65.696v-181.51c0-43.523,27.291-65.422,81.865-65.696h81.099c52.726.274,80.009,20.957,81.865,62.055v46.694h-88.431Z"/>
    <polygon class="cls-1" points="1945.032 730.264 1875.547 635.063 1875.041 635.26 1875.041 729.456 1781.309 729.456 1781.309 416.357 1875.041 416.357 1875.041 521.464 1947.057 417.369 2049.633 417.369 1934.171 577.859 2051.151 730.264 1945.032 730.264"/>
    <path class="cls-1" d="M1333.998,730.702c87.138,0,157.776-70.512,157.776-157.502s-70.638-157.495-157.776-157.495c-82.667,0-150.486,63.468-157.228,144.257h208.547v26.482h-208.547c6.742,80.783,74.561,144.257,157.228,144.257"/>
  </g>
</svg>