<?xml version="1.0" encoding="UTF-8"?>
<svg id="Layer_1" data-name="Layer 1" xmlns="http://www.w3.org/2000/svg" viewBox="0 0 2294.627 550.521">
  <defs>
    <style>
      .cls-1 {
        fill: #f7c94a;
        stroke-width: 0px;
      }
    </style>
  </defs>
  <g id="_BLOCK" data-name="$BLOCK">
    <path class="cls-1" d="M343.543,402.62c0,61.018-38.246,91.703-114.748,92.084v55.818h-122.544v-55.818C35.651,494.323.351,463.638.351,402.62v-65.731l123.959.283v40.51c.468,11.903,9.21,17.855,26.206,17.855h42.5c17.943,0,26.685-6.986,26.216-20.967v-32.587c-.478-11.708-9.093-17.464-25.855-17.279h-78.278C39.076,324.137.702,295.14,0,237.722v-89.537C0,87.176,38.246,56.481,114.748,56.101h-8.498V0h122.544v56.101h-.361c74.141.381,112.387,29.377,114.758,86.981v65.175l-123.959.273v-35.124c-.478-11.903-9.21-17.855-26.216-17.855h-42.5c-17.943,0-26.684,6.986-26.206,20.967v30.88c.468,11.903,9.21,17.855,26.206,17.855h78.278c74.131.381,112.387,29.377,114.748,86.981v90.386Z"/>
    <path class="cls-1" d="M597.852,359.835c.468-23.416-8.274-35.134-26.207-35.134h-72.248v70.834h72.248c17.933,0,26.675-6.986,26.207-20.967v-14.733ZM597.852,176.517c.468-13.972-8.274-20.967-26.207-20.967h-72.248v68.287h72.248c17.933,0,26.675-10.859,26.207-32.587v-14.733ZM375.077,56.1h231.985c76.502.381,114.748,31.075,114.748,92.084v71.116c0,26.07-8.732,44.871-26.207,56.384,17.474,11.337,26.207,29.943,26.207,55.818v71.117c0,61.018-38.246,91.703-114.748,92.084h-231.985V56.1Z"/>
    <polygon class="cls-1" points="753.348 494.989 753.348 56.104 875.892 56.104 875.892 396.954 1070.333 396.954 1070.684 494.989 753.348 494.989"/>
    <path class="cls-1" d="M1760.877,208.535v-35.7c-.946-11.523-9.679-17.279-26.207-17.279h-42.5c-17.952,0-26.685,6.986-26.207,20.967v198.051c-.478,13.981,8.254,20.967,26.207,20.967h42.5c17.943,0,26.675-6.986,26.207-20.967v-37.407h123.959v65.458c0,61.009-38.246,91.703-114.748,92.084h-113.695c-76.492-.381-114.748-31.075-114.748-92.084v-254.435c0-61.018,38.256-91.713,114.748-92.093h113.695c73.897.381,112.153,29.377,114.748,86.991v65.448h-123.959Z"/>
    <polygon class="cls-1" points="2145.876 496.122 2048.475 362.67 2047.773 362.953 2047.773 494.99 1916.37 494.99 1916.37 56.095 2047.773 56.095 2047.773 203.441 2148.715 57.52 2292.5 57.52 2130.646 282.489 2294.627 496.122 2145.876 496.122"/>
    <path class="cls-1" d="M1289.357,496.736c122.144,0,221.165-98.845,221.165-220.774s-99.021-220.774-221.165-220.774c-115.88,0-210.949,88.971-220.394,202.217h292.33v37.114h-292.33c9.444,113.246,104.514,202.217,220.394,202.217"/>
  </g>
</svg>