<?xml version="1.0" encoding="UTF-8"?>
<svg id="Layer_1" data-name="Layer 1" xmlns="http://www.w3.org/2000/svg" xmlns:xlink="http://www.w3.org/1999/xlink" viewBox="0 0 2398.765 1145.398">
  <defs>
    <style>
      .cls-1 {
        fill: #0052ff;
      }

      .cls-1, .cls-2 {
        stroke-width: 0px;
      }

      .cls-3 {
        clip-path: url(#clippath);
      }

      .cls-4 {
        stroke: #fff;
        stroke-linejoin: round;
        stroke-width: 40px;
      }

      .cls-4, .cls-5 {
        fill: none;
      }

      .cls-5 {
        stroke: #f7c94a;
        stroke-miterlimit: 10;
        stroke-width: 14.219px;
      }

      .cls-2 {
        fill: #f7c94a;
      }
    </style>
    <clipPath id="clippath">
      <path class="cls-4" d="M2278.446,1117.669c-1.073-.988-1.976-2.161-2.839-3.121.204-.6.216-.958.401-1.133,2.56-2.429,2.692-2.746,1.525-5.675-.493-1.236-1.209-2.383-1.825-3.569-.676-1.302-1.353-2.604-2.086-4.017,3.106-3.54,2.263-7.006.062-10.356-1.7-2.588-2.287-5.339-2.329-8.434-.058-4.301-.44-8.618-1.009-12.884-.289-2.168-1.136-4.307-2.016-6.335-.857-1.974-1.505-3.857-.856-6.019.469-1.561-.073-2.901-1.074-4.135-2.605-3.212-3.879-7.008-4.637-10.999-.917-4.833-1.84-9.659-3.854-14.191-.631-1.421-.697-2.881-.282-4.367.905-3.238.208-6.195-1.594-8.939-1.595-2.429-2.344-5.089-2.58-7.979-.145-1.766-.644-3.508-1.033-5.249-.486-2.179-1.02-4.348-1.537-6.52-.539-2.264-.542-4.33,1.222-6.238,1.506-1.629,1.586-3.796,1.31-5.924-.313-2.415-1.223-4.619-2.704-6.529-1.822-2.348-3.681-4.679-5.68-6.876-2.57-2.825-4.444-5.925-4.979-9.782-.286-2.061-.729-4.108-1.216-6.133-.479-1.991-.495-3.823,1.009-5.428,1.276-1.363,1.311-2.965.655-4.585-.725-1.791-1.562-3.536-2.359-5.298-.552-1.219-1.189-2.403-1.663-3.65-1.251-3.289-1.129-6.465,1.246-9.24,2.096-2.45,2.962-5.086,1.922-8.255-.58-1.768.165-3.233,1.453-4.402,1.209-1.097,2.52-2.081,3.778-3.125,3.807-3.16,4.462-7.223,1.848-11.486-.233-.38-.475-.768-.781-1.087-2.281-2.379-2.302-5.166-1.015-7.876,1.654-3.485,3.388-7.019,7.543-8.338,1.271-.403,2.405-1.149,3.267-2.871-1.005-1.492-1.899-2.849-2.825-4.186-.996-1.44-1.347-3.023-.797-4.671.751-2.249,1.463-4.548,2.547-6.641,1.102-2.128,2.284-4.163,2.575-6.598.202-1.692.944-3.162,2.338-4.173,2.303-1.671,2.911-4.013,2.848-6.675-.025-1.042.005-2.085.004-3.128,0-1.667.187-3.284,1.323-4.618,1.167-1.37,1.308-2.912.953-4.616-.241-1.159-.348-2.355-.417-3.54-.1-1.704.261-3.266,1.711-4.382,1.281-.986,1.726-2.351,1.846-3.902.229-2.936,1.137-5.855-.232-8.794-.326-.701-.039-1.753.14-2.607.213-1.015.577-2.003.939-2.98,2.231-6.029,3.798-12.216,4.648-18.595.396-2.974,1.413-5.737,3.044-8.321.932-1.476,1.549-3.218,1.98-4.924.443-1.755.038-3.54-.658-5.238-.621-1.515-1.118-3.079-1.736-4.595-1.114-2.729-.616-5.245.896-7.654.079-.126.144-.264.239-.377,3.517-4.208,4.509-8.871,2.905-14.191-.4-1.326-.109-2.952.189-4.372.333-1.589.839-3.207,1.612-4.625,2.411-4.425,3.281-9.244,3.799-14.141.509-4.81,1.804-9.34,4.105-13.588.354-.654.649-1.342,1.01-1.992,2.981-5.362,2.819-10.817.481-16.331-1.86-4.386-3.778-8.747-5.587-13.154-.79-1.924-1.376-3.932-2.049-5.905-.727-2.132-.434-4.11.932-5.911.629-.829,1.19-1.734,1.93-2.451,2.651-2.57,4.059-5.795,5.273-9.205,1.195-3.356,2.542-6.677,4.099-9.88,1.633-3.36,3.664-6.5,7.036-8.465,1.331-.776,1.795-2.055,1.55-3.438-.281-1.587-.576-3.299-1.39-4.636-1.459-2.396-3.284-4.574-5.01-6.801-1.455-1.877-3.147-3.59-4.431-5.572-.95-1.468-1.521-3.217-2.067-4.904-.7-2.165-.193-4.113,1.525-5.69.438-.402.807-.882,1.258-1.267,3.016-2.58,3.339-6.203,3.615-9.76.085-1.097-.421-2.371-.999-3.364-2.226-3.816-3.245-8-3.859-12.286-.725-5.065-1.828-9.957-4.836-14.234-.419-.596-.652-1.334-.91-2.029-.096-.258-.016-.581-.016-.883,3.293-3.467,3.349-3.678,2.105-8.658-.466-1.865-.96-3.722-1.37-5.309.244-.597.279-.963.479-1.129,2.646-2.195,2.975-4.995,2.179-8.107-.258-1.01-.474-2.032-.772-3.031-.522-1.751-.468-3.468-.206-5.284.635-4.413,1.153-8.832,2.008-13.222.471-2.418.208-5.058-.151-7.537-.35-2.415-.672-4.691.581-6.941.627-1.128.467-2.357-.169-3.426-1.761-2.959-1.917-6.199-1.858-9.507.048-2.68.081-5.364,0-8.042-.062-2.077-.191-4.166-.5-6.217-.454-3.014-.554-5.932,1.071-8.668,1.162-1.957,1.068-3.979.252-6.015-1.535-3.833-1.984-7.719-1.085-11.816.339-1.547-.008-3.245-.051-4.874-.039-1.478-.271-2.978-.096-4.429.353-2.921.452-5.983,3.523-7.775.643-.375,1.109-1.473,1.207-2.291.424-3.557.717-7.149-.969-10.511-1.067-2.127-2.155-4.253-3.38-6.291-1.816-3.023-2.756-6.231-2.645-9.768.079-2.53.067-5.064.058-7.596-.008-2.045.48-3.849,2.294-5.04,1.574-1.034,2.013-2.451,1.638-4.253-.516-2.476-.967-4.965-1.427-7.452-.243-1.314-.542-2.629-.645-3.957-.183-2.354.615-4.4,2.302-6.062.635-.625,1.313-1.214,2.022-1.752,1.782-1.355,2.85-3.159,2.716-5.363-.209-3.446,1.838-5.153,4.497-6.503,1.06-.538,2.176-.965,3.24-1.496,2.637-1.316,4.167-3.381,3.909-6.418-.15-1.76-.26-3.629-.934-5.217-1.417-3.342-.517-6.176,1.482-8.765,2.036-2.637,4.661-4.58,7.971-5.423.863-.22,1.757-.351,2.591-.651,1.5-.54,2.088-1.465,1.919-3.113-.426-4.17-1.295-8.248-3.052-12.072-.989-2.152-1.212-4.285-.42-6.5,2.185-6.109,1.21-12.344.761-18.557-.096-1.334-.457-2.664-.423-3.99.182-7.265-1.658-14.167-3.689-21.03-1.437-4.854-3.092-9.644-4.476-14.512-.976-3.432-1.714-6.935-2.462-10.427-1.186-5.534-2.278-11.083-4.645-16.288-.403-.885-.58-2.069-.367-3.002.642-2.824-.229-5.32-1.359-7.767-1.249-2.703-2.625-5.346-3.952-8.012-1.207-2.424-2.015-4.858-1.788-7.698.243-3.039-1.037-5.831-2.546-8.428-.971-1.671-2.097-3.253-3.189-4.851-1.937-2.832-3.73-5.724-4.939-8.973-1.354-3.64-4.315-5.994-7.19-8.36-1.03-.848-2.26-1.45-3.301-2.285-1.388-1.113-2.742-2.284-4.001-3.54-1.612-1.609-2.106-3.549-1.275-5.742.317-.835.605-1.682.953-2.504,1.107-2.614,1.114-5.29,0-7.827-.948-2.161-2.102-4.283-3.491-6.184-1.838-2.516-4.026-4.773-6.004-7.191-1.692-2.069-3.332-4.183-4.937-6.321-1.543-2.057-2.679-4.297-2.676-6.964.002-2.018-1.041-3.296-2.795-4.185-8.842-4.486-14.199-11.96-17.85-20.905-3.067-7.516-4.76-15.324-5.239-23.421-.14-2.373-.563-4.728-.738-7.1-.384-5.227.157-10.429.98-15.564.437-2.725,1.423-5.396,3.758-7.357,1.09-.916,1.956-2.233,2.59-3.532,1.303-2.669,2.897-5.102,4.764-7.341H20v359.471c84.605,23.556,146.71,101.115,146.71,193.228s-62.105,169.673-146.71,193.228v359.471h2263.92c-1.3-2.944-3.087-5.533-5.474-7.729Z"/>
    </clipPath>
  </defs>
  <g id="TORN_CLIP_MASK" data-name="TORN CLIP MASK">
    <g>
      <g class="cls-3">
        <g id="LOGO">
          <path id="BLUE_BACKGROUND" data-name="BLUE BACKGROUND" class="cls-1" d="M20,20v359.471c84.605,23.556,146.71,101.115,146.71,193.228s-62.105,169.673-146.71,193.228v359.471h2329.811V20H20Z"/>
          <rect id="YELLOW_INLINE" data-name="YELLOW INLINE" class="cls-5" x="229.077" y="125.386" width="2162.578" height="894.626"/>
          <g id="_BLOCK" data-name="$BLOCK">
            <path class="cls-2" d="M563.759,673.237c0,48.167-30.195,72.393-90.586,72.693v44.063h-96.737v-44.063c-55.733-.301-83.596-24.527-83.596-72.693v-51.89l97.855.224v31.984c.371,9.394,7.269,14.092,20.69,14.092h33.55c14.163,0,21.061-5.515,20.69-16.552v-25.722c-.376-9.243-7.177-13.79-20.41-13.643h-61.789c-60.019-.447-90.306-23.334-90.866-68.666v-70.678c0-48.164,30.195-72.393,90.586-72.693h-6.711v-44.286h96.737v44.286h-.279c58.526.301,88.72,23.188,90.586,68.666v51.444l-97.855.222v-27.734c-.376-9.394-7.269-14.091-20.69-14.091h-33.55c-14.167,0-21.065,5.518-20.69,16.552v24.38c.371,9.394,7.269,14.091,20.69,14.091h61.788c58.526.301,88.721,23.188,90.586,68.666v71.35Z"/>
            <path class="cls-2" d="M588.653,399.579h183.129c60.391.301,90.586,24.529,90.586,72.693v56.14c0,20.578-6.897,35.417-20.689,44.51,13.792,8.946,20.689,23.635,20.689,44.063v56.14c0,48.167-30.195,72.393-90.586,72.693h-183.129v-346.24ZM764.512,494.639c.372-11.034-6.527-16.552-20.689-16.552h-57.035v53.904h57.035c14.162,0,21.061-8.573,20.689-25.722v-11.63ZM764.512,639.352c.372-18.487-6.527-27.734-20.689-27.734h-57.035v55.918h57.035c14.162,0,21.061-5.515,20.689-16.552v-11.631Z"/>
            <path class="cls-2" d="M887.264,745.931v-346.463h96.737v269.074h153.493l.279,77.389h-250.509Z"/>
            <path class="cls-2" d="M1682.617,519.912v-28.182c-.747-9.093-7.644-13.643-20.689-13.643h-33.55c-14.168,0-21.065,5.518-20.689,16.552v156.344c-.376,11.037,6.521,16.552,20.689,16.552h33.55c14.164,0,21.061-5.515,20.689-16.552v-29.524h97.856v51.667c0,48.167-30.195,72.393-90.586,72.693h-89.747c-60.389-.301-90.585-24.527-90.585-72.693v-200.853c0-48.164,30.195-72.393,90.585-72.693h89.747c58.337.301,88.533,23.188,90.586,68.666v51.667h-97.856Z"/>
            <path class="cls-2" d="M1986.54,746.378l-76.886-105.349-.56.224v104.23h-103.725v-346.463h103.725v116.309l79.683-115.19h113.511l-127.77,177.593,129.448,168.647h-117.426Z"/>
            <path class="cls-2" d="M1310.394,746.982c96.421,0,174.587-78.029,174.587-174.282s-78.165-174.282-174.587-174.282c-91.479,0-166.525,70.234-173.978,159.632h230.763v29.3h-230.763c7.453,89.398,82.499,159.633,173.978,159.633Z"/>
          </g>
        </g>
      </g>
      <path class="cls-4" d="M2278.446,1117.669c-1.073-.988-1.976-2.161-2.839-3.121.204-.6.216-.958.401-1.133,2.56-2.429,2.692-2.746,1.525-5.675-.493-1.236-1.209-2.383-1.825-3.569-.676-1.302-1.353-2.604-2.086-4.017,3.106-3.54,2.263-7.006.062-10.356-1.7-2.588-2.287-5.339-2.329-8.434-.058-4.301-.44-8.618-1.009-12.884-.289-2.168-1.136-4.307-2.016-6.335-.857-1.974-1.505-3.857-.856-6.019.469-1.561-.073-2.901-1.074-4.135-2.605-3.212-3.879-7.008-4.637-10.999-.917-4.833-1.84-9.659-3.854-14.191-.631-1.421-.697-2.881-.282-4.367.905-3.238.208-6.195-1.594-8.939-1.595-2.429-2.344-5.089-2.58-7.979-.145-1.766-.644-3.508-1.033-5.249-.486-2.179-1.02-4.348-1.537-6.52-.539-2.264-.542-4.33,1.222-6.238,1.506-1.629,1.586-3.796,1.31-5.924-.313-2.415-1.223-4.619-2.704-6.529-1.822-2.348-3.681-4.679-5.68-6.876-2.57-2.825-4.444-5.925-4.979-9.782-.286-2.061-.729-4.108-1.216-6.133-.479-1.991-.495-3.823,1.009-5.428,1.276-1.363,1.311-2.965.655-4.585-.725-1.791-1.562-3.536-2.359-5.298-.552-1.219-1.189-2.403-1.663-3.65-1.251-3.289-1.129-6.465,1.246-9.24,2.096-2.45,2.962-5.086,1.922-8.255-.58-1.768.165-3.233,1.453-4.402,1.209-1.097,2.52-2.081,3.778-3.125,3.807-3.16,4.462-7.223,1.848-11.486-.233-.38-.475-.768-.781-1.087-2.281-2.379-2.302-5.166-1.015-7.876,1.654-3.485,3.388-7.019,7.543-8.338,1.271-.403,2.405-1.149,3.267-2.871-1.005-1.492-1.899-2.849-2.825-4.186-.996-1.44-1.347-3.023-.797-4.671.751-2.249,1.463-4.548,2.547-6.641,1.102-2.128,2.284-4.163,2.575-6.598.202-1.692.944-3.162,2.338-4.173,2.303-1.671,2.911-4.013,2.848-6.675-.025-1.042.005-2.085.004-3.128,0-1.667.187-3.284,1.323-4.618,1.167-1.37,1.308-2.912.953-4.616-.241-1.159-.348-2.355-.417-3.54-.1-1.704.261-3.266,1.711-4.382,1.281-.986,1.726-2.351,1.846-3.902.229-2.936,1.137-5.855-.232-8.794-.326-.701-.039-1.753.14-2.607.213-1.015.577-2.003.939-2.98,2.231-6.029,3.798-12.216,4.648-18.595.396-2.974,1.413-5.737,3.044-8.321.932-1.476,1.549-3.218,1.98-4.924.443-1.755.038-3.54-.658-5.238-.621-1.515-1.118-3.079-1.736-4.595-1.114-2.729-.616-5.245.896-7.654.079-.126.144-.264.239-.377,3.517-4.208,4.509-8.871,2.905-14.191-.4-1.326-.109-2.952.189-4.372.333-1.589.839-3.207,1.612-4.625,2.411-4.425,3.281-9.244,3.799-14.141.509-4.81,1.804-9.34,4.105-13.588.354-.654.649-1.342,1.01-1.992,2.981-5.362,2.819-10.817.481-16.331-1.86-4.386-3.778-8.747-5.587-13.154-.79-1.924-1.376-3.932-2.049-5.905-.727-2.132-.434-4.11.932-5.911.629-.829,1.19-1.734,1.93-2.451,2.651-2.57,4.059-5.795,5.273-9.205,1.195-3.356,2.542-6.677,4.099-9.88,1.633-3.36,3.664-6.5,7.036-8.465,1.331-.776,1.795-2.055,1.55-3.438-.281-1.587-.576-3.299-1.39-4.636-1.459-2.396-3.284-4.574-5.01-6.801-1.455-1.877-3.147-3.59-4.431-5.572-.95-1.468-1.521-3.217-2.067-4.904-.7-2.165-.193-4.113,1.525-5.69.438-.402.807-.882,1.258-1.267,3.016-2.58,3.339-6.203,3.615-9.76.085-1.097-.421-2.371-.999-3.364-2.226-3.816-3.245-8-3.859-12.286-.725-5.065-1.828-9.957-4.836-14.234-.419-.596-.652-1.334-.91-2.029-.096-.258-.016-.581-.016-.883,3.293-3.467,3.349-3.678,2.105-8.658-.466-1.865-.96-3.722-1.37-5.309.244-.597.279-.963.479-1.129,2.646-2.195,2.975-4.995,2.179-8.107-.258-1.01-.474-2.032-.772-3.031-.522-1.751-.468-3.468-.206-5.284.635-4.413,1.153-8.832,2.008-13.222.471-2.418.208-5.058-.151-7.537-.35-2.415-.672-4.691.581-6.941.627-1.128.467-2.357-.169-3.426-1.761-2.959-1.917-6.199-1.858-9.507.048-2.68.081-5.364,0-8.042-.062-2.077-.191-4.166-.5-6.217-.454-3.014-.554-5.932,1.071-8.668,1.162-1.957,1.068-3.979.252-6.015-1.535-3.833-1.984-7.719-1.085-11.816.339-1.547-.008-3.245-.051-4.874-.039-1.478-.271-2.978-.096-4.429.353-2.921.452-5.983,3.523-7.775.643-.375,1.109-1.473,1.207-2.291.424-3.557.717-7.149-.969-10.511-1.067-2.127-2.155-4.253-3.38-6.291-1.816-3.023-2.756-6.231-2.645-9.768.079-2.53.067-5.064.058-7.596-.008-2.045.48-3.849,2.294-5.04,1.574-1.034,2.013-2.451,1.638-4.253-.516-2.476-.967-4.965-1.427-7.452-.243-1.314-.542-2.629-.645-3.957-.183-2.354.615-4.4,2.302-6.062.635-.625,1.313-1.214,2.022-1.752,1.782-1.355,2.85-3.159,2.716-5.363-.209-3.446,1.838-5.153,4.497-6.503,1.06-.538,2.176-.965,3.24-1.496,2.637-1.316,4.167-3.381,3.909-6.418-.15-1.76-.26-3.629-.934-5.217-1.417-3.342-.517-6.176,1.482-8.765,2.036-2.637,4.661-4.58,7.971-5.423.863-.22,1.757-.351,2.591-.651,1.5-.54,2.088-1.465,1.919-3.113-.426-4.17-1.295-8.248-3.052-12.072-.989-2.152-1.212-4.285-.42-6.5,2.185-6.109,1.21-12.344.761-18.557-.096-1.334-.457-2.664-.423-3.99.182-7.265-1.658-14.167-3.689-21.03-1.437-4.854-3.092-9.644-4.476-14.512-.976-3.432-1.714-6.935-2.462-10.427-1.186-5.534-2.278-11.083-4.645-16.288-.403-.885-.58-2.069-.367-3.002.642-2.824-.229-5.32-1.359-7.767-1.249-2.703-2.625-5.346-3.952-8.012-1.207-2.424-2.015-4.858-1.788-7.698.243-3.039-1.037-5.831-2.546-8.428-.971-1.671-2.097-3.253-3.189-4.851-1.937-2.832-3.73-5.724-4.939-8.973-1.354-3.64-4.315-5.994-7.19-8.36-1.03-.848-2.26-1.45-3.301-2.285-1.388-1.113-2.742-2.284-4.001-3.54-1.612-1.609-2.106-3.549-1.275-5.742.317-.835.605-1.682.953-2.504,1.107-2.614,1.114-5.29,0-7.827-.948-2.161-2.102-4.283-3.491-6.184-1.838-2.516-4.026-4.773-6.004-7.191-1.692-2.069-3.332-4.183-4.937-6.321-1.543-2.057-2.679-4.297-2.676-6.964.002-2.018-1.041-3.296-2.795-4.185-8.842-4.486-14.199-11.96-17.85-20.905-3.067-7.516-4.76-15.324-5.239-23.421-.14-2.373-.563-4.728-.738-7.1-.384-5.227.157-10.429.98-15.564.437-2.725,1.423-5.396,3.758-7.357,1.09-.916,1.956-2.233,2.59-3.532,1.303-2.669,2.897-5.102,4.764-7.341H20v359.471c84.605,23.556,146.71,101.115,146.71,193.228s-62.105,169.673-146.71,193.228v359.471h2263.92c-1.3-2.944-3.087-5.533-5.474-7.729Z"/>
    </g>
  </g>
</svg>