<?xml version="1.0" encoding="UTF-8"?>
<svg id="Layer_1" data-name="Layer 1" xmlns="http://www.w3.org/2000/svg" viewBox="0 0 2292.023 1141.436">
  <defs>
    <style>
      .cls-1 {
        fill: #0052ff;
        stroke-width: 0px;
      }
    </style>
  </defs>
  <path id="TICKET_OUTLINE" data-name="TICKET OUTLINE" class="cls-1" d="M2292.023,1141.436H0v-396.737l16.897-4.626c77.102-21.117,130.953-90.754,130.953-169.353s-53.851-148.239-130.953-169.356l-16.897-4.626V0h2292.023v45.926H45.926v316.492c87.882,31.647,147.85,114.94,147.85,208.302s-59.968,176.652-147.85,208.299v316.492h2246.097v45.926Z"/>
  <polygon id="INNER_OUTLINE" data-name="INNER OUTLINE" class="cls-1" points="2179.674 1024.203 267.135 1024.203 267.135 117.233 2179.674 117.233 2179.674 132.541 282.444 132.541 282.444 1008.894 2179.674 1008.894 2179.674 1024.203"/>
  <g id="_BLOCK" data-name="$BLOCK">
    <path class="cls-1" d="M656.982,661.26c0,43.38-27.19,65.194-81.578,65.465v39.682h-87.12v-39.682c-50.191-.27-75.286-22.085-75.286-65.465v-46.73l88.125.201v28.799c.333,8.462,6.548,12.693,18.631,12.693h30.214c12.756,0,18.971-4.966,18.638-14.906v-23.167c-.34-8.324-6.465-12.416-18.381-12.284h-55.65c-54.048-.402-81.328-21.017-81.827-61.837v-63.654c0-43.373,27.19-65.194,81.578-65.465h-6.041v-39.884h87.12v39.884h-.257c52.709.271,79.899,20.885,81.585,61.837v46.334l-88.125.194v-24.971c-.34-8.462-6.548-12.693-18.638-12.693h-30.214c-12.756,0-18.971,4.966-18.631,14.906v21.953c.333,8.462,6.548,12.693,18.631,12.693h55.65c52.702.271,79.899,20.885,81.578,61.837v64.258Z"/>
    <path class="cls-1" d="M837.777,630.844c.333-16.647-5.882-24.978-18.631-24.978h-51.363v50.357h51.363c12.749,0,18.964-4.966,18.631-14.906v-10.474ZM837.777,500.518c.333-9.933-5.882-14.906-18.631-14.906h-51.363v48.547h51.363c12.749,0,18.964-7.72,18.631-23.167v-10.474ZM679.401,414.91h164.924c54.387.271,81.578,22.092,81.578,65.465v50.559c0,18.534-6.208,31.9-18.631,40.085,12.423,8.06,18.631,21.287,18.631,39.682v50.559c0,43.38-27.19,65.194-81.578,65.465h-164.924v-311.814Z"/>
    <polygon class="cls-1" points="948.324 726.928 948.324 414.913 1035.443 414.913 1035.443 657.232 1173.677 657.232 1173.926 726.928 948.324 726.928"/>
    <path class="cls-1" d="M1664.603,523.28v-25.38c-.673-8.192-6.881-12.284-18.631-12.284h-30.214c-12.763,0-18.971,4.966-18.631,14.906v140.8c-.34,9.94,5.868,14.906,18.631,14.906h30.214c12.756,0,18.964-4.966,18.631-14.906v-26.594h88.126v46.536c0,43.373-27.19,65.194-81.578,65.465h-80.829c-54.38-.271-81.578-22.092-81.578-65.465v-180.884c0-43.38,27.197-65.201,81.578-65.472h80.829c52.535.271,79.733,20.885,81.578,61.844v46.529h-88.126Z"/>
    <polygon class="cls-1" points="1938.309 727.733 1869.064 632.859 1868.564 633.06 1868.564 726.929 1775.146 726.929 1775.146 414.907 1868.564 414.907 1868.564 519.659 1940.327 415.92 2042.547 415.92 1927.481 575.856 2044.059 727.733 1938.309 727.733"/>
    <path class="cls-1" d="M1329.387,728.17c86.835,0,157.232-70.272,157.232-156.954s-70.396-156.954-157.232-156.954c-82.382,0-149.969,63.252-156.684,143.761h207.825v26.386h-207.825c6.714,80.509,74.302,143.761,156.684,143.761"/>
  </g>
</svg>